<svg width="1000" height="111" viewBox="0 0 1000 111" fill="none" xmlns="http://www.w3.org/2000/svg">
<g clip-path="url(#clip0_425_326)">
<path d="M0.559814 0.0252686V111H37.5514V37.0169H74.543V0.0252686H0.559814ZM111.535 111V37.0169H74.543V111H111.535Z" fill="#E9265C"/>
<path d="M222.527 37.0169V0.0252686H185.536V37.0169H222.527ZM185.536 74.0084V37.0169H148.544V74.0084H185.536ZM222.527 111V74.0084H185.536V111H222.527ZM259.519 74.0084V37.0169H222.527V74.0084H259.519Z" fill="#E9265C"/>
<path d="M370.512 0.0252686V74.0084H333.52V0.0252686H296.529V111C329.359 111 374.442 111 407.503 111V0.0252686H370.512Z" fill="#E9265C"/>
<path d="M444.513 0.0252686V111H481.505V37.0169H518.496V0.0252686H444.513ZM555.488 111V37.0169H518.496V111H555.488Z" fill="#E9265C"/>
<path d="M666.481 37.0169V74.0084H629.489V37.0169H666.481V0.0252686C647.985 0.0252686 610.762 0.0252686 592.497 0.0252686V111C625.327 111 670.411 111 703.472 111V37.0169H666.481Z" fill="#E9265C"/>
<path d="M740.482 0.0252686V111H777.473V74.0084H814.465V0.0252686H740.482ZM851.456 111V74.0084H814.465V111H851.456Z" fill="#E9265C"/>
<path d="M962.449 0.0252686V37.0169H925.458V0.0252686H888.466C888.466 18.5211 888.466 55.7438 888.466 74.0084H925.458V111H962.449V74.0084H999.441C999.441 55.7438 999.441 18.5211 999.441 0.0252686H962.449Z" fill="#E9265C"/>
</g>
<defs>
<clipPath id="clip0_425_326">
<rect width="1000" height="111" fill="white"/>
</clipPath>
</defs>
</svg>
